<svg xmlns="http://www.w3.org/2000/svg" width="79" height="79" viewBox="0 0 79 79">
    <defs>
        <filter id="dj0w4e0t4a">
            <feColorMatrix in="SourceGraphic" values="0 0 0 0 0.360784 0 0 0 0 0.643137 0 0 0 0 0.400000 0 0 0 1.000000 0"/>
        </filter>
    </defs>
    <g fill="none" fill-rule="evenodd">
        <g filter="url(#dj0w4e0t4a)" transform="translate(-671 -1357)">
            <g fill="#000" fill-rule="nonzero">
                <path d="M13 55c-4.412 0-8 3.588-8 8s3.588 8 8 8c1.747 0 3.408-.553 4.803-1.6L16.2 67.267c-.928.698-2.035 1.066-3.2 1.066-2.941 0-5.333-2.392-5.333-5.333 0-2.941 2.392-5.333 5.333-5.333 2.941 0 5.333 2.392 5.333 5.333 0 .819-.18 1.604-.534 2.332l2.394 1.17C20.73 65.406 21 64.227 21 63c0-4.412-3.588-8-8-8z" transform="translate(671 1357)"/>
                <path d="M67.283 19.598c.93 1.245 2.401 2.063 4.072 2.063H79V11.468h-7.645c-1.67 0-3.142.818-4.072 2.063-.641-.488-1.433-.79-2.3-.79-1.658 0-3.06 1.07-3.587 2.55H25.484v-2.55C25.484 5.717 19.768 0 12.742 0 5.716 0 0 5.716 0 12.742v49.693c0 7.026 5.716 12.742 12.742 12.742h48.654c.527 1.48 1.929 2.549 3.588 2.549.866 0 1.658-.3 2.299-.789.93 1.245 2.401 2.063 4.072 2.063H79V68.806h-7.645c-1.67 0-3.142.818-4.072 2.063-.31-.235-.653-.42-1.025-.554V58.377c.372-.132.716-.318 1.025-.554.93 1.246 2.401 2.064 4.072 2.064H79V49.694h-7.645c-1.67 0-3.142.818-4.072 2.062-.31-.235-.653-.42-1.025-.554V39.264c.372-.132.716-.318 1.025-.554.93 1.246 2.401 2.064 4.072 2.064H79V30.581h-7.645c-1.67 0-3.142.818-4.072 2.063-.31-.235-.653-.42-1.025-.555V20.153c.372-.133.716-.319 1.025-.555zm4.072-5.582h5.097v1.274h-3.823v2.549h3.823v1.274h-5.097c-1.406 0-2.549-1.144-2.549-2.548 0-1.405 1.143-2.549 2.549-2.549zm0 57.339h5.097v1.274h-3.823v2.548h3.823v1.275h-5.097c-1.406 0-2.549-1.143-2.549-2.549 0-1.405 1.143-2.548 2.549-2.548zm0-19.113h5.097v1.274h-3.823v2.549h3.823v1.274h-5.097c-1.406 0-2.549-1.143-2.549-2.549 0-1.405 1.143-2.548 2.549-2.548zm0-19.113h5.097v1.274h-3.823v2.549h3.823v1.274h-5.097c-1.406 0-2.549-1.143-2.549-2.549 0-1.405 1.143-2.548 2.549-2.548zm-45.871-5.097h21.661v34.403H25.484V28.032zm-.258 36.952h24.468v-39.5h-24.21v-2.549h28.032v44.597H24.412c.356-.81.634-1.661.814-2.548zM2.548 12.742c0-5.62 4.573-10.194 10.194-10.194 5.62 0 10.193 4.573 10.193 10.194v42.081c-2.325-3.106-6.023-5.13-10.193-5.13s-7.868 2.024-10.194 5.13V12.742zm10.194 59.887c-5.62 0-10.194-4.573-10.194-10.194 0-5.62 4.573-10.193 10.194-10.193 5.62 0 10.193 4.573 10.193 10.193 0 5.621-4.573 10.194-10.193 10.194zm48.654.004H20.354c.98-.738 1.848-1.606 2.581-2.585v.033H58.613v-2.549h-2.548V56.065h2.548v-2.549h-2.548V36.952h2.548v-2.549h-2.548V22.935h2.548v-2.548H25.484V17.84h35.912c.385 1.079 1.233 1.929 2.314 2.314V32.09c-1.48.527-2.549 1.929-2.549 3.588s1.068 3.06 2.549 3.588v11.938c-1.48.527-2.549 1.929-2.549 3.588s1.068 3.06 2.549 3.588v11.938c-1.08.385-1.93 1.235-2.314 2.314zm3.588 2.544c-.703 0-1.274-.57-1.274-1.274 0-.703.57-1.274 1.274-1.274.703 0 1.274.57 1.274 1.274 0 .704-.57 1.274-1.274 1.274zm0-19.112c-.703 0-1.274-.571-1.274-1.275 0-.703.57-1.274 1.274-1.274.703 0 1.274.571 1.274 1.274 0 .704-.57 1.275-1.274 1.275zm0-19.113c-.703 0-1.274-.571-1.274-1.275 0-.703.57-1.274 1.274-1.274.703 0 1.274.571 1.274 1.274 0 .704-.57 1.275-1.274 1.275zm0-19.113c-.703 0-1.274-.571-1.274-1.274 0-.704.57-1.275 1.274-1.275.703 0 1.274.571 1.274 1.275 0 .703-.57 1.274-1.274 1.274z" transform="translate(671 1357)"/>
            </g>
        </g>
    </g>
</svg>
