<svg xmlns="http://www.w3.org/2000/svg" xmlns:xlink="http://www.w3.org/1999/xlink" width="289" height="27" viewBox="0 0 289 27">
    <defs>
        <path id="ud9hwjev2b" d="M0.588 0.048L19.863 0.048 19.863 25 0.588 25z"/>
        <path id="syy20d8avd" d="M0.347 0.05L21.952 0.05 21.952 25 0.347 25z"/>
        <path id="v2j6ihypcg" d="M0 0.08L28.471 0.08 28.471 25.743 0 25.743z"/>
        <path id="ja6l8pjw2i" d="M0.556 0.08L21.896 0.08 21.896 25.743 0.556 25.743z"/>
        <filter id="tlmhoc4kya">
            <feColorMatrix in="SourceGraphic" values="0 0 0 0 0.360784 0 0 0 0 0.643137 0 0 0 0 0.400000 0 0 0 1.000000 0"/>
        </filter>
        <filter id="hap14gl1sf">
            <feColorMatrix in="SourceGraphic" values="0 0 0 0 0.360784 0 0 0 0 0.643137 0 0 0 0 0.400000 0 0 0 1.000000 0"/>
        </filter>
    </defs>
    <g fill="#fff" fill-rule="evenodd">
        <g>
            <g>
                <g transform="translate(-812 -2461) translate(812 2461)">
                    <g>
                        <g transform="translate(181 2)">
                            <mask id="ki3s83nfpc" fill="#fff">
                                <use xlink:href="#ud9hwjev2b"/>
                            </mask>
                            <path fill="#5ca466" d="M8.59 1.494H5.206c-.798 0-1.414.083-1.836.241-.431.163-.756.396-.98.705-.224.308-.376.687-.447 1.133-.076.442-.14.95-.19 1.517H.588L.774.048h18.899l.19 5.042h-1.166c-.05-.567-.11-1.075-.169-1.517-.063-.446-.206-.825-.434-1.133-.224-.309-.558-.542-.993-.705-.439-.158-1.06-.241-1.862-.241h-3.382v23.508H8.59V1.494z" mask="url(#ki3s83nfpc)"/>
                        </g>
                        <path fill="#5ca466" d="M29.028 11.256h1.008c.672 0 1.424-.025 2.26-.075.84-.05 1.622-.242 2.357-.576.735-.334 1.352-.848 1.848-1.541s.748-1.695.748-3.01c0-.89-.156-1.628-.466-2.209-.311-.584-.723-1.052-1.231-1.411-.513-.359-1.105-.614-1.777-.76-.672-.15-1.37-.225-2.092-.225-.626 0-1.118.025-1.479.075-.361.05-.63.163-.802.334-.177.175-.282.426-.315.76-.042.334-.06.776-.06 1.319v7.319zm-3.251-7.319c0-.643-.05-1.152-.152-1.524-.1-.371-.285-.66-.558-.872-.278-.21-.656-.376-1.143-.501C23.441.914 22.798.78 22 .635V0h10.578c1.146 0 2.222.088 3.234.259 1.008.175 1.89.488 2.655.948.76.459 1.353 1.11 1.794 1.953.433.84.651 1.93.651 3.265 0 1.065-.18 1.958-.542 2.677-.361.718-.844 1.31-1.453 1.782-.614.468-1.307.831-2.08 1.077-.769.25-1.57.422-2.39.518L42 25h-3.663l-7.44-12.295h-1.87V25h-3.25V3.937z" transform="translate(181 2)"/>
                        <g transform="translate(181 2) translate(43)">
                            <mask id="8ao1nf01ze" fill="#fff">
                                <use xlink:href="#syy20d8avd"/>
                            </mask>
                            <path fill="#5ca466" d="M6.212 15.288h8.529L10.493 3.98 6.212 15.288zM8.124 4.425c.127-.345.254-.691.376-1.041.127-.342.19-.667.19-.963 0-.496-.245-.85-.734-1.075C7.47 1.126 6.748.9 5.794.68V.05h6.468L21.952 25h-3.648l-3.154-8.266H5.684L2.716 25H.347L8.124 4.425z" mask="url(#8ao1nf01ze)"/>
                        </g>
                        <path fill="#5ca466" d="M72.107 20.804c0 .443.013.843.038 1.19.026.347.099.635.227.873.128.233.324.405.59.517.268.113.653.167 1.16.167 3.063 0 5.361-.864 6.877-2.6 1.52-1.733 2.28-4.543 2.28-8.43 0-1.587-.127-3.06-.38-4.421-.251-1.366-.704-2.535-1.349-3.512-.645-.977-1.525-1.749-2.64-2.304-1.114-.556-2.523-.835-4.223-.835-.577 0-1.038.033-1.367.092-.325.062-.59.192-.777.388-.188.2-.312.484-.36.856-.05.371-.076.856-.076 1.448v16.571zm-3.306-16.57c0-.694-.047-1.245-.136-1.654-.086-.405-.261-.73-.53-.964-.265-.234-.645-.422-1.14-.556C66.503.923 65.833.78 65 .63V0h8.06c1.994 0 3.852.138 5.565.41 1.712.27 3.181.847 4.429 1.728 1.238.876 2.208 2.141 2.904 3.786C86.654 7.574 87 9.77 87 12.521c0 2.747-.359 4.943-1.08 6.592-.722 1.65-1.718 2.906-2.982 3.77-1.268.869-2.763 1.436-4.489 1.708-1.72.275-3.57.409-5.543.409H68.8V4.233zM92.87 3.9c0-.522-.048-.965-.134-1.337-.09-.371-.28-.68-.555-.926-.284-.25-.671-.447-1.17-.597C90.51.89 89.843.756 89 .63V0h18.079l.194 4.53h-1.193c-.099-.468-.19-.898-.267-1.282-.077-.384-.224-.71-.439-.985-.22-.272-.546-.476-.977-.614-.435-.133-1.046-.2-1.838-.2h-4.025c-.538 0-.96.029-1.278.092-.323.062-.555.183-.71.371-.155.184-.25.439-.289.76-.038.326-.06.73-.06 1.227v7.32h4.864c.796 0 1.42-.084 1.881-.243.457-.159.814-.38 1.072-.647.254-.276.43-.597.538-.969.1-.371.19-.78.263-1.223h.882v7.686h-.882c-.1-.542-.198-1.014-.284-1.41-.09-.397-.259-.723-.495-.986-.246-.259-.599-.451-1.055-.572-.46-.125-1.098-.188-1.92-.188h-4.864v8.73c0 .547.035.96.1 1.244.064.284.206.493.425.63.211.138.534.218.952.243.426.025.977.037 1.665.037h4.141c.633 0 1.145-.054 1.528-.167.383-.112.685-.305.9-.576.22-.271.392-.639.517-1.094.129-.459.258-1.048.383-1.766H108L107.729 25h-14.86V3.9z" transform="translate(181 2)"/>
                    </g>
                </g>
                <g transform="translate(-812 -2461) translate(812 2461)">
                    <g transform="translate(0 1)">
                        <mask id="z2tkkq7tch" fill="#fff">
                            <use xlink:href="#v2j6ihypcg"/>
                        </mask>
                        <path fill="#5ca466" d="M3.858 4.58c0-.762-.048-1.358-.135-1.791-.09-.437-.273-.771-.537-1.011-.273-.24-.66-.433-1.162-.575C1.525 1.066.849.908-.001.732V.08h8.45l7.635 21.926h.082L23.806.08h4.665v25.663h-3.36V2.1h-.074l-8.064 23.644h-3.01L5.94 2.1h-.074v23.644H3.858V4.58z" mask="url(#z2tkkq7tch)"/>
                    </g>
                    <path fill="#5ca466" d="M47.45 24.359c.818-.751 1.438-1.712 1.86-2.878.422-1.161.685-2.45.784-3.864.103-1.41.155-2.777.155-4.095 0-1.223-.043-2.537-.134-3.947-.09-1.41-.34-2.711-.749-3.903-.405-1.192-1.03-2.183-1.856-2.974-.831-.79-1.985-1.183-3.471-1.183-1.456 0-2.601.376-3.45 1.126-.84.751-1.473 1.708-1.895 2.878-.422 1.161-.68 2.454-.784 3.864-.103 1.41-.155 2.79-.155 4.139 0 1.214.048 2.523.134 3.92.09 1.398.336 2.694.75 3.886.408 1.192 1.033 2.183 1.877 2.974.844.79 2.015 1.183 3.523 1.183 1.46 0 2.597-.376 3.41-1.126m-8.294 1.632c-1.292-.672-2.321-1.615-3.088-2.816-.762-1.205-1.3-2.632-1.606-4.274-.306-1.646-.461-3.44-.461-5.38 0-2.073.168-3.946.5-5.618.327-1.668.887-3.087 1.666-4.253.78-1.166 1.809-2.065 3.088-2.698C40.53.319 42.127 0 44.04 0c1.916 0 3.514.345 4.789 1.03 1.279.686 2.3 1.629 3.066 2.834.77 1.205 1.314 2.628 1.628 4.274.319 1.646.478 3.44.478 5.384 0 2.07-.164 3.934-.495 5.593-.332 1.655-.879 3.065-1.65 4.235-.762 1.166-1.787 2.065-3.062 2.698-1.274.633-2.864.952-4.754.952-1.964 0-3.596-.336-4.884-1.009M59 5.233c0-.642-.08-1.131-.242-1.47-.158-.333-.4-.588-.72-.759-.314-.175-.732-.284-1.236-.334-.512-.05-1.105-.113-1.802-.188v-.63L62.48 1v20.282c0 .768.018 1.37.058 1.8.045.434.162.764.36.985.202.221.521.359.961.41.441.05 1.075.074 1.902.074h3.56c.746 0 1.33-.096 1.762-.28.422-.183.746-.459.957-.818.211-.359.364-.785.459-1.281.09-.493.18-1.053.26-1.67H74L73.798 26H59V5.233zM78 5.233c0-.642-.08-1.131-.242-1.47-.158-.333-.4-.588-.72-.759-.319-.175-.732-.284-1.236-.334-.512-.05-1.105-.113-1.802-.188v-.63L81.48 1v20.282c0 .768.018 1.37.058 1.8.04.434.162.764.36.985.202.221.521.359.961.41.441.05 1.075.074 1.902.074h3.56c.746 0 1.33-.096 1.762-.28.422-.183.746-.459.953-.818.215-.359.368-.785.463-1.281.09-.493.18-1.053.26-1.67H93L92.798 26H78V5.233zM98.968 16.265h8.689L103.33 4.936l-4.363 11.33zm1.951-10.882c.125-.346.254-.693.383-1.04.125-.346.194-.671.194-.968 0-.497-.254-.851-.748-1.077-.5-.221-1.23-.442-2.202-.664V1h6.583L115 26h-3.715l-3.211-8.286h-9.64L95.412 26H93l7.92-20.617zM119.279 5.233c0-.642-.087-1.131-.26-1.47-.168-.333-.428-.588-.769-.759-.337-.175-.784-.284-1.322-.334-.543-.05-1.183-.113-1.928-.188v-.63L123 1v25h-3.721V5.233zM131.968 16.265h8.689L136.33 4.936l-4.363 11.33zm1.951-10.882c.125-.346.254-.693.383-1.04.125-.346.194-.671.194-.968 0-.497-.254-.851-.748-1.077-.5-.221-1.23-.442-2.202-.664V1h6.583L148 26h-3.715l-3.211-8.286h-9.64L128.412 26H126l7.92-20.617z"/>
                    <g transform="translate(148 1)">
                        <mask id="8z7ob8lj3j" fill="#fff">
                            <use xlink:href="#ja6l8pjw2i"/>
                        </mask>
                        <path fill="#5ca466" d="M4.318 4.58c0-.762-.046-1.367-.13-1.812-.094-.442-.267-.793-.529-1.046-.266-.257-.646-.454-1.148-.592C2.013.99 1.363.856.556.732V.08h7.52L19.873 20.9h.072V.08h1.954v25.663h-2.858L6.345 3.36h-.076v22.384h-1.95V4.58z" mask="url(#8z7ob8lj3j)"/>
                    </g>
                </g>
            </g>
        </g>
    </g>
</svg>
