<svg xmlns="http://www.w3.org/2000/svg" width="79" height="79" viewBox="0 0 79 79">
    <defs>
        <filter id="dsl66dkqda">
            <feColorMatrix in="SourceGraphic" values="0 0 0 0 0.360784 0 0 0 0 0.643137 0 0 0 0 0.400000 0 0 0 1.000000 0"/>
        </filter>
    </defs>
    <g fill="none" fill-rule="evenodd">
        <g transform="translate(-265 -1357)">
            <g fill="#569760" fill-rule="nonzero">
                <path d="M42.206 0c-.593 0-1.148.294-1.483.785-.98 1.437-24.018 35.389-24.018 52.56 0 14.146 11.44 25.655 25.5 25.655 14.061 0 25.5-11.509 25.5-25.655 0-17.171-23.036-51.123-24.017-52.56C43.353.294 42.798 0 42.206 0zm0 75.38c-12.078 0-21.903-9.884-21.903-22.035 0-13.658 16.757-40.388 21.903-48.274 5.145 7.886 21.902 34.616 21.902 48.274 0 12.15-9.825 22.036-21.902 22.036z" transform="translate(265 1357)"/>
                <path d="M41.705 68.287c0 .946.767 1.713 1.713 1.713 8.98 0 16.287-7.307 16.287-16.287 0-.946-.766-1.713-1.712-1.713s-1.713.767-1.713 1.713c0 7.092-5.77 12.862-12.862 12.862-.946 0-1.713.766-1.713 1.712zM76.93 8.225h-3.45v-3.45c0-.98-.794-1.775-1.775-1.775-.98 0-1.775.795-1.775 1.775v3.45h-3.45c-.98 0-1.775.795-1.775 1.775 0 .98.795 1.775 1.776 1.775h3.45v3.45c0 .98.794 1.775 1.774 1.775.981 0 1.776-.795 1.776-1.775v-3.45h3.45c.98 0 1.774-.795 1.774-1.775 0-.98-.794-1.775-1.775-1.775zM12.93 61.225H9.48v-3.45c0-.98-.794-1.775-1.775-1.775-.98 0-1.775.795-1.775 1.775v3.45H2.48C1.5 61.225.706 62.02.706 63c0 .98.795 1.775 1.776 1.775h3.45v3.45c0 .98.794 1.775 1.774 1.775s1.776-.795 1.776-1.775v-3.45h3.45c.98 0 1.774-.795 1.774-1.775 0-.98-.794-1.775-1.775-1.775z" transform="translate(265 1357)"/>
            </g>
        </g>
    </g>
</svg>
