<svg xmlns="http://www.w3.org/2000/svg" xmlns:xlink="http://www.w3.org/1999/xlink" width="30" height="29" viewBox="0 0 30 29">
    <defs>
        <path id="adzvm8sgza" d="M0.5 0L29.5 0 29.5 29 0.5 29z"/>
    </defs>
    <g fill="none" fill-rule="evenodd">
        <g>
            <g transform="translate(-689 -7631) translate(689 7631)">
                <mask id="xjop1rut8b" fill="#fff">
                    <use xlink:href="#adzvm8sgza"/>
                </mask>
                <path fill="#000" d="M29.401 7.647C29.401 3.476 26.036.1 21.878 0H8.12C3.865 0 .5 3.377.5 7.647v13.804C.5 25.623 3.865 29 8.121 29h4.652v-9.832H9.012v-4.171h3.662v-3.179c0-3.674 2.178-5.66 5.444-5.66 1.088 0 2.177.099 3.265.297v3.576h-1.78c-1.19-.199-2.18.695-2.376 1.787v3.179h4.058l-.594 4.17h-3.365V29h4.652c4.157 0 7.522-3.377 7.522-7.549l-.099-13.804z" mask="url(#xjop1rut8b)"/>
            </g>
        </g>
    </g>
</svg>
