<svg xmlns="http://www.w3.org/2000/svg" viewBox="0 0 32.83 31.57"><defs><style>.cls-1{fill:#5ca466;stroke:#5ca466;stroke-miterlimit:10;stroke-width:0.5px;}</style></defs><g id="Livello_2" data-name="Livello 2"><g id="Livello_1-2" data-name="Livello 1"><path class="cls-1" d="M32.17,8.73q-.34-.76-.81-1.59c-.31-.55-.63-1.07-1-1.55s-.64-.93-.95-1.34a6.11,6.11,0,0,0-.81-.91,4.47,4.47,0,0,0-1.93-1.13,12.13,12.13,0,0,0-2.65-.32c-.54,0-1,0-1.4,0l-1.19,0H18.66c0,.71,0,1.67,0,2.89s0,2.49,0,3.82v16.6c0,.82,0,1.61.07,2.36a3,3,0,0,0,.4,1.59,3.13,3.13,0,0,0,1.8,1.27,19.24,19.24,0,0,0,2.11.51v.43H9.2v-.43a12.24,12.24,0,0,0,2.12-.42,4.43,4.43,0,0,0,2-1.4,1.39,1.39,0,0,0,.32-.7,10,10,0,0,0,.17-1.11c0-.41.07-.85.09-1.34s0-.94,0-1.4,0-.92,0-1.57,0-1.37,0-2.16,0-1.62,0-2.47V1.85h-2.8L10,1.87c-.41,0-.88,0-1.42,0A9.4,9.4,0,0,0,6,2.28,5,5,0,0,0,4,3.46a6,6,0,0,0-.79.9q-.45.59-.93,1.29a16.89,16.89,0,0,0-.94,1.51,10.12,10.12,0,0,0-.7,1.57L.28,8.6,1.55.54C2.2.68,2.81.79,3.36.87A17.94,17.94,0,0,0,5.76,1l2.88.07,2.47,0h8.06l2.47,0,2.46,0c.85,0,1.81,0,2.89,0A12.63,12.63,0,0,0,29.3.81c.61-.13,1.24-.29,1.89-.49L32.55,8.6Z"/></g></g></svg>