<svg xmlns="http://www.w3.org/2000/svg" xmlns:xlink="http://www.w3.org/1999/xlink" width="31" height="31" viewBox="0 0 31 31">
    <defs>
        <path id="mjidp9azua" d="M0 0.8L29.3 0.8 29.3 30 0 30z"/>
    </defs>
    <g fill="none" fill-rule="evenodd">
        <g>
            <g>
                <g transform="translate(-734 -7630) translate(734.5 7630) translate(0 .2)">
                    <mask id="i85jw7v9kb" fill="#fff">
                        <use xlink:href="#mjidp9azua"/>
                    </mask>
                    <path fill="#000" d="M25.1 19.6c0 3.5-2.8 6.3-6.3 6.3h-8.4c-3.5 0-6.3-2.8-6.3-6.3v-8.4c0-3.4 2.9-6.3 6.3-6.3h8.4c3.5 0 6.3 2.8 6.3 6.3v8.4zM21.6.8H7.7C3.4.8 0 4.2 0 8.5v13.9C0 26.6 3.4 30 7.7 30h13.9c4.2 0 7.6-3.4 7.7-7.6V8.5C29.2 4.2 25.8.8 21.6.8z" mask="url(#i85jw7v9kb)"/>
                </g>
                <path fill="#000" d="M20.2 11.3c-.7 0-1.2-.6-1.2-1.2s.6-1.2 1.2-1.2c.7 0 1.2.6 1.2 1.2 0 .7-.6 1.2-1.2 1.2m-5.5 9.5c-2.8 0-5.2-2.3-5.2-5.2 0-2.9 2.3-5.2 5.2-5.2 2.8 0 5.2 2.3 5.2 5.2 0 2.9-2.3 5.2-5.2 5.2m4.1-13.7h-8.4C8 7.1 6.1 9 6.1 11.4v8.4c0 2.4 1.9 4.3 4.3 4.3h8.4c2.4 0 4.3-1.9 4.3-4.3v-8.4c0-2.3-1.9-4.3-4.3-4.3" transform="translate(-734 -7630) translate(734.5 7630)"/>
                <path fill="#000" d="M14.7 12.3c-1.8 0-3.3 1.5-3.3 3.3 0 1.8 1.5 3.3 3.3 3.3 1.8 0 3.3-1.5 3.3-3.3 0-1.8-1.5-3.3-3.3-3.3" transform="translate(-734 -7630) translate(734.5 7630)"/>
            </g>
        </g>
    </g>
</svg>
