<svg xmlns="http://www.w3.org/2000/svg" xmlns:xlink="http://www.w3.org/1999/xlink" width="482" height="75" viewBox="0 0 482 75">
    <defs>
        <path id="upbects65a" d="M0.814 0.631L28.445 0.631 28.445 27.254 0.814 27.254z"/>
        <path id="0pkbza3sec" d="M0.09 0.631L27.576 0.631 27.576 27.254 0.09 27.254z"/>
        <path id="1184pp9vze" d="M0 0.102L481.188 0.102 481.188 2.963 0 2.963z"/>
    </defs>
    <g fill="none" fill-rule="evenodd">
        <g>
            <g>
                <path fill="#5CA466" d="M23.639 27H0v-.361c.614-.096 1.221-.253 1.823-.47.6-.216 1.073-.517 1.419-.902.12-.145.225-.355.31-.632.088-.277.155-.596.204-.957.05-.362.093-.741.129-1.137.037-.398.055-.789.055-1.175 0-.336.006-.794.019-1.371l.036-1.897c.012-.685.018-1.39.018-2.112V5.622c0-.434-.018-.836-.054-1.21-.037-.373-.093-.704-.166-.993-.074-.288-.185-.517-.332-.686-.343-.41-.803-.723-1.38-.939-.577-.216-1.185-.362-1.823-.433V1h11.746v.36c-.32.05-.7.121-1.142.218-.442.096-.86.252-1.252.469-.394.217-.73.524-1.013.92-.282.397-.436.921-.46 1.571-.024.844-.043 1.614-.055 2.312l-.036 2.058c-.013.675-.02 1.372-.02 2.094v6.572c0 .627.007 1.271.02 1.933.011.662.017 1.402.017 2.22.024.772.056 1.505.093 2.203.036.699.165 1.217.387 1.553.097.121.294.241.588.361s.65.223 1.068.307c.417.085.871.158 1.362.217.491.06.982.09 1.473.09.197 0 .51-.006.939-.018.43-.012.903-.036 1.418-.072.515-.036 1.042-.09 1.582-.162.541-.073 1.02-.168 1.437-.29.981-.264 1.797-.613 2.448-1.047.65-.433 1.21-.932 1.676-1.498.465-.566.858-1.18 1.177-1.842.32-.661.627-1.355.921-2.077l.368.11L23.639 27zM37.578 5.709c-.146.319-.359.822-.638 1.508-.28.687-.626 1.52-1.039 2.5-.414.982-.87 2.092-1.368 3.33-.498 1.239-1.038 2.582-1.623 4.029h9.08c-.414-1.104-.833-2.208-1.258-3.312-.425-1.102-.839-2.163-1.24-3.18-.4-1.019-.765-1.951-1.094-2.797-.328-.846-.601-1.538-.82-2.078zM42.355 28v-.367c.072 0 .249-.025.528-.074.28-.049.57-.135.875-.257.304-.122.57-.295.802-.515.23-.22.346-.502.346-.846 0-.22-.066-.583-.2-1.085-.134-.503-.322-1.116-.565-1.84-.244-.723-.523-1.527-.84-2.41-.315-.882-.655-1.802-1.02-2.758h-9.698c-.365.932-.717 1.82-1.058 2.667-.34.846-.68 1.698-1.02 2.557-.51 1.323-.766 2.256-.766 2.795 0 .319.096.583.292.791.194.209.444.38.747.515.304.136.631.233.985.294.351.062.685.117 1.003.166V28H25v-.405c.632-.072 1.172-.244 1.621-.514.45-.27.712-.453.784-.552.171-.172.45-.576.84-1.214.387-.638.862-1.582 1.421-2.832.511-1.153 1.081-2.465 1.714-3.936l1.95-4.543c.668-1.557 1.331-3.126 1.987-4.708.657-1.582 1.276-3.06 1.86-4.434l-.365-.809c.438-.196.833-.429 1.185-.698.352-.27.663-.552.93-.846.267-.295.492-.576.675-.846.182-.27.32-.49.42-.663h.29c.754 2.037 1.47 3.967 2.152 5.794.68 1.827 1.33 3.586 1.95 5.278.62 1.692 1.222 3.33 1.806 4.912.582 1.581 1.165 3.144 1.75 4.69.266.76.515 1.392.747 1.894l.783 1.71c.049.099.158.271.329.515.17.246.395.497.674.754.279.258.625.485 1.039.681.413.196.899.307 1.458.331V28H42.355zM77.384 2.93c-.463.285-.728.477-.8.572-.07.071-.172.184-.301.34-.132.155-.279.38-.445.68-.165.297-.36.673-.586 1.126-.225.453-.478 1.024-.764 1.716-.472 1.145-.994 2.427-1.562 3.845-.568 1.419-1.149 2.88-1.74 4.38-.593 1.503-1.178 3.012-1.759 4.524l-1.65 4.31L66.035 28h-.427c-.781-1.931-1.51-3.773-2.184-5.526-.675-1.752-1.332-3.438-1.971-5.06-.64-1.621-1.256-3.189-1.848-4.703-.592-1.515-1.184-3.034-1.776-4.56-.166-.452-.32-.846-.461-1.18-.143-.334-.279-.644-.409-.93-.13-.286-.261-.56-.391-.822-.13-.262-.265-.537-.408-.823-.07-.144-.178-.322-.32-.537-.142-.214-.337-.429-.586-.644-.248-.214-.55-.399-.906-.554-.354-.154-.804-.244-1.349-.268V2h10.62v.357c-.118.025-.332.06-.64.108-.307.048-.621.136-.94.268-.321.131-.604.317-.853.554-.249.24-.373.537-.373.895 0 .214.13.72.391 1.52.26.799.597 1.764 1.012 2.896.414 1.133.882 2.373 1.403 3.72.52 1.347 1.035 2.67 1.546 3.97.508 1.298.988 2.509 1.438 3.63.449 1.12.804 2.037 1.065 2.753.118-.262.338-.81.658-1.645.32-.834.721-1.872 1.207-3.112.485-1.239 1.024-2.647 1.616-4.22.592-1.573 1.208-3.219 1.847-4.935.473-1.31.781-2.306.923-2.986.143-.68.214-1.15.214-1.413 0-.358-.118-.655-.356-.894-.237-.238-.532-.435-.888-.59-.355-.155-.727-.275-1.119-.358-.39-.083-.74-.136-1.047-.16V2H79v.393c-.617.072-1.154.25-1.616.537M91.578 5.709c-.146.319-.359.822-.638 1.508-.28.687-.626 1.52-1.039 2.5-.414.982-.87 2.092-1.368 3.33-.498 1.239-1.039 2.582-1.623 4.029h9.08c-.414-1.104-.833-2.208-1.258-3.312-.425-1.102-.84-2.163-1.24-3.18-.401-1.019-.765-1.951-1.094-2.797-.328-.846-.601-1.538-.82-2.078zM96.354 28v-.367c.073 0 .25-.025.529-.074.28-.049.57-.135.875-.257.304-.122.57-.295.802-.515.23-.22.346-.502.346-.846 0-.22-.066-.583-.2-1.085-.134-.503-.322-1.116-.565-1.84-.244-.723-.523-1.527-.84-2.41-.315-.882-.655-1.802-1.02-2.758h-9.698c-.365.932-.717 1.82-1.058 2.667-.34.846-.68 1.698-1.02 2.557-.51 1.323-.766 2.256-.766 2.795 0 .319.096.583.292.791.194.209.444.38.747.515.304.136.631.233.985.294.351.062.685.117 1.003.166V28H79v-.405c.632-.072 1.172-.244 1.621-.514.45-.27.712-.453.784-.552.171-.172.45-.576.84-1.214.387-.638.862-1.582 1.421-2.832.511-1.153 1.081-2.465 1.714-3.936l1.95-4.543c.668-1.557 1.331-3.126 1.987-4.708.657-1.582 1.276-3.06 1.86-4.434l-.365-.809c.438-.196.833-.429 1.185-.698.352-.27.663-.552.93-.846.267-.295.492-.576.675-.846.182-.27.32-.49.42-.663h.29c.754 2.037 1.47 3.967 2.15 5.794.682 1.827 1.332 3.586 1.953 5.278.619 1.692 1.22 3.33 1.805 4.912.582 1.581 1.165 3.144 1.749 4.69.267.76.516 1.392.748 1.894l.783 1.71c.049.099.158.271.329.515.17.246.395.497.674.754.279.258.625.485 1.039.681.413.196.899.307 1.458.331V28H96.354z" transform="translate(-92 -58) translate(92 58)"/>
                <g transform="translate(-92 -58) translate(92 58) translate(107)">
                    <mask id="te7w31siyb" fill="#fff">
                        <use xlink:href="#upbects65a"/>
                    </mask>
                    <path fill="#5CA466" d="M27.106 15.384c-.483.157-.833.403-1.05.739-.17.264-.267.673-.29 1.224-.025.553-.036 1.106-.036 1.658v5.259c-.17.144-.586.384-1.25.72-.664.336-1.473.679-2.426 1.027-.954.349-2.01.643-3.17.882-1.158.24-2.316.36-3.475.36-2.294 0-4.347-.293-6.157-.881-1.81-.588-3.338-1.454-4.58-2.593-1.244-1.142-2.198-2.535-2.862-4.18-.665-1.645-.996-3.488-.996-5.53 0-.6.06-1.291.182-2.072.12-.78.33-1.602.634-2.467.3-.865.723-1.741 1.266-2.63.544-.888 1.226-1.729 2.047-2.522 1.159-1.129 2.583-2.036 4.273-2.72C10.906.975 12.957.632 15.372.632c1.448 0 2.728.126 3.838.38 1.11.251 2.048.528 2.807.827.761.3 1.346.577 1.757.83.41.251.64.378.688.378.049 0 .18-.144.398-.433.218-.288.483-.636.798-1.045h.326v7.854h-.435c-.267-1.08-.665-2.1-1.196-3.062-.53-.961-1.098-1.753-1.702-2.377-.773-.817-1.762-1.479-2.969-1.983-1.207-.504-2.559-.756-4.057-.756-1.592 0-3.03.355-4.309 1.063-1.28.708-2.366 1.657-3.259 2.846C7.163 6.34 6.476 7.71 5.993 9.259c-.483 1.55-.725 3.177-.725 4.882 0 1.873.23 3.584.689 5.134.458 1.548 1.123 2.876 1.991 3.98.87 1.105 1.932 1.964 3.188 2.576 1.254.613 2.691.919 4.309.919 1.159 0 2.24-.199 3.242-.595 1.001-.396 1.792-1.038 2.37-1.927.194-.311.34-.865.436-1.657.096-.792.145-1.609.145-2.45 0-.84-.043-1.596-.127-2.27-.086-.671-.332-1.224-.743-1.656-.555-.625-1.533-.996-2.933-1.118v-.36h10.61v.36c-.41.049-.857.15-1.339.307" mask="url(#te7w31siyb)"/>
                </g>
                <g transform="translate(-92 -58) translate(92 58) translate(140)">
                    <mask id="hnulrtdvzd" fill="#fff">
                        <use xlink:href="#0pkbza3sec"/>
                    </mask>
                    <path fill="#5CA466" d="M26.244 15.384c-.48.157-.83.403-1.045.739-.169.264-.265.673-.288 1.224-.025.553-.036 1.106-.036 1.658v5.259c-.169.144-.583.384-1.243.72-.661.336-1.465.679-2.414 1.027-.949.349-2 .643-3.152.882-1.153.24-2.305.36-3.459.36-2.281 0-4.323-.293-6.124-.881-1.801-.588-3.32-1.454-4.557-2.593-1.237-1.142-2.186-2.535-2.846-4.18-.66-1.645-.99-3.488-.99-5.53 0-.6.06-1.291.18-2.072.12-.78.329-1.602.63-2.467.3-.865.72-1.741 1.26-2.63.541-.888 1.22-1.729 2.037-2.522 1.152-1.129 2.57-2.036 4.25-2.72C10.128.975 12.17.632 14.571.632c1.44 0 2.714.126 3.819.38 1.105.251 2.036.528 2.792.827.757.3 1.338.577 1.747.83.408.251.636.378.685.378.048 0 .18-.144.395-.433.217-.288.482-.636.794-1.045h.324v7.854h-.433c-.265-1.08-.66-2.1-1.189-3.062-.528-.961-1.092-1.753-1.693-2.377-.768-.817-1.752-1.479-2.954-1.983-1.2-.504-2.545-.756-4.035-.756-1.584 0-3.014.355-4.287 1.063-1.273.708-2.352 1.657-3.242 2.846C6.406 6.34 5.721 7.71 5.241 9.259c-.48 1.55-.721 3.177-.721 4.882 0 1.873.229 3.584.685 5.134.456 1.548 1.117 2.876 1.982 3.98.864 1.105 1.92 1.964 3.17 2.576 1.248.613 2.677.919 4.287.919 1.152 0 2.227-.199 3.224-.595.996-.396 1.783-1.038 2.359-1.927.193-.311.337-.865.433-1.657.096-.792.144-1.609.144-2.45 0-.84-.043-1.596-.127-2.27-.084-.671-.33-1.224-.738-1.656-.552-.625-1.525-.996-2.918-1.118v-.36h10.555v.36c-.408.049-.852.15-1.332.307" mask="url(#hnulrtdvzd)"/>
                </g>
                <path fill="#5CA466" d="M172 27v-.361c.605-.096 1.167-.253 1.689-.47.519-.216.961-.529 1.324-.938.12-.145.212-.349.272-.614.061-.265.11-.578.146-.94.036-.36.06-.74.072-1.136.011-.398.018-.789.018-1.175 0-.336.005-.794.018-1.371.011-.578.025-1.21.037-1.897.012-.685.018-1.39.018-2.112V5.55c0-.433-.018-.837-.055-1.21-.036-.373-.09-.71-.163-1.011-.073-.3-.182-.535-.327-.704-.34-.41-.756-.705-1.252-.885-.496-.181-1.06-.308-1.688-.38V1h10.855v.36c-.508.072-1.053.206-1.634.398-.58.192-1.029.577-1.343 1.156-.218.409-.333.926-.345 1.552-.012.627-.03 1.216-.055 1.77 0 .601-.006 1.197-.018 1.788-.012.59-.018 1.185-.018 1.788V21.909c0 .697.012 1.37.036 2.021.024.651.133 1.109.327 1.373.29.41.75.722 1.38.938.629.217 1.198.35 1.706.398V27h-11zM209.978 9.926c-.372-1.517-.936-2.895-1.692-4.133-.757-1.236-1.698-2.24-2.826-3.012-1.128-.77-2.46-1.156-3.996-1.156-1.56 0-2.91.386-4.05 1.156-1.14.771-2.076 1.77-2.807 2.994-.733 1.225-1.273 2.615-1.62 4.17-.348 1.555-.523 3.128-.523 4.72 0 1.666.192 3.27.577 4.813.383 1.542.953 2.902 1.709 4.077.757 1.175 1.704 2.118 2.845 2.829 1.138.71 2.465 1.065 3.978 1.065 1.51 0 2.825-.391 3.94-1.175 1.118-.784 2.047-1.794 2.79-3.031.744-1.237 1.303-2.627 1.675-4.17.371-1.543.558-3.086.558-4.628 0-1.494-.187-3-.558-4.519m3.942 9.918c-.72 1.667-1.699 3.112-2.935 4.336-1.236 1.224-2.676 2.167-4.319 2.828-1.644.661-3.39.992-5.238.992-1.824 0-3.552-.324-5.184-.973-1.632-.65-3.06-1.567-4.284-2.755-1.223-1.188-2.19-2.609-2.898-4.262-.708-1.653-1.062-3.472-1.062-5.455 0-2.106.372-3.998 1.117-5.675.742-1.678 1.745-3.099 3.005-4.262 1.261-1.163 2.737-2.057 4.428-2.682 1.692-.625 3.475-.936 5.346-.936 2.04 0 3.87.367 5.49 1.102 1.62.735 2.994 1.72 4.122 2.957 1.128 1.237 1.991 2.664 2.592 4.28.599 1.615.9 3.306.9 5.07 0 1.958-.36 3.77-1.08 5.435M237.14 7.048c-.067-.286.03-.413-.198-.667-.13-.159-.13-.254-.13-.381 0-.095 0-.159-.063-.286-.164-.286-.39-.571-.814-.666-.292-.064-.52-.128-.78-.128-.097 0-.228 0-.327.032-.39.064-.616.127-.877.476-.26.35-.618.318-.91.572-.294.254-.228.572-.358 1.111-.13.54-.293.889-.358 1.302 0 .095-.032.159-.032.254 0 .317.097.666.26 1.079.194.508.423.985.749 1.714.551 1.175 1.723 1.524 2.112 1.556.325 0 .846-.19 1.041-.286.163-.064.586-.286 1.007-.286.098 0 .164 0 .261.033.26.063.358.253.358.476 0 .19-.065.412-.228.602-.324.413-.65.572-1.104.763-.457.19-.911.253-1.366.253-.456 0-1.106.382-1.561.445-.456.063-.619.317-.976.666-.358.35-.456.667-.618 1.048-.164.38-.618.762-.618 1.08 0 .317-.26.825-.326 1.301-.065.476-.13 1.714-.13 1.968s.13.984.196 1.111c.065.127.097.603.13.857.032.255.032.857.584 1.397.554.54.847 1.301 1.173 1.365.325.064 1.137.508 1.56.667.423.158.781.19 1.138.19.39 0 1.3-.412 1.496-.73.13-.222.422-.317.619-.444.323-.223.584-.571.584-.603 0-.159-.097-.54-.097-.73 0-.286.325-.35.423-.636.097-.285.097-.602.26-.92.13-.222.194-.634.194-1.047 0-.128-.032-.255-.032-.54 0-.413.293-.794.293-1.46-.033-.7 0-.985-.293-1.08-.26 0-.715.317-.879.317-.324 0-.616 0-1.008-.158-.39-.159-.65-.444-.682-.921 0-.317.162-.57.553-.984.423-.444.715-.54 1.333-.54s1.042.063 1.365.16c.327.095.78.603 1.074.729.293.127.586.127 1.236.159.455 0 .489-.254 1.01-.285.291 0 .616.158.616.539-.033.35-.52.572-1.007.699-.197.063-.651.063-.685.063h-.096c-.066 0-.13-.031-.197-.031-.226 0-.421.094-.421.348 0 .032.031.064.031.128.099.444.13 1.365.13 1.713 0 .35-.096 1.144-.291 1.62-.162.444-.229.57-.391 1.174-.292.953-.65 1.746-1.009 2.063-.356.318-.584.413-.812.7-.229.285-.846.857-1.269.92-.423.063-.552.19-1.17.57-.618.382-.78.256-1.593.445-.26.064-.488.096-.683.096-.39 0-.62-.096-.846-.127-.325-.032-.91-.032-1.463-.254s-.716-.095-1.27-.445c-.551-.348-.519-.54-.942-.73-.422-.19-.683-.476-.716-.92-.032-.444-.455-.7-.78-1.46-.326-.762-.163-.636-.39-1.556-.098-.381-.13-.698-.13-.952 0-.381.065-.668.162-1.048.163-.635.26-.572.326-1.016.064-.445.26-.635.552-1.175.293-.539.293-.603.521-1.047.227-.445.813-.794 1.236-1.111.357-.286.357-.254.455-.445 0-.032.032-.063.032-.095.13-.286.39-.54.78-.762.358-.19.586-.222.586-.508 0-.286-.943-.507-1.17-.603-.228-.095-.359-.476-.619-.89-.26-.412-.422-.475-.52-.634-.098-.158-.227-.286-.227-.889 0-.444-.358-.57-.358-1.27.032-.73.13-1.047.39-1.714.26-.666.423-.825.715-1.428.098-.191.163-.699.586-.794.422-.318.195-.444.682-.762.489-.317.424-.286.586-.413.163-.126.488-.158.878-.476.358-.285 1.432-.476 2.212-.476.487.063.91.159 1.397.35.489.19 1.368.476 1.561.952.197.476.36 1.047.36 1.428 0 .223.03.413.03.603 0 .16-.03.318-.096.413-.195.254-.878.826-1.204.826-.293-.032-.552-.191-.552-.604s-.099-.635-.162-.92M273.143 4.534c-.596-.938-1.465-1.682-2.608-2.235-.57-.265-1.172-.456-1.803-.578-.63-.12-1.292-.18-1.982-.18-.5 0-.906.013-1.215.037-.31.023-.548.048-.714.072-.025.144-.047.27-.072.378-.024.108-.041.247-.053.415-.013.168-.024.403-.036.703l-.054 1.28c-.023.842-.04 1.791-.054 2.85-.011 1.057-.017 2.079-.017 3.064v3.967c.976 0 1.886-.042 2.733-.127.845-.084 1.66-.258 2.447-.522.761-.24 1.415-.565 1.963-.974.548-.409.994-.871 1.34-1.389.344-.516.6-1.075.767-1.676.167-.6.25-1.226.25-1.875 0-1.202-.298-2.272-.892-3.21zM276.678 27c-.213-.217-.368-.379-.463-.488-.096-.107-.204-.233-.322-.377-.12-.145-.269-.355-.447-.632-.18-.276-.46-.69-.839-1.244-.453-.672-.851-1.28-1.198-1.82-.344-.542-.695-1.077-1.053-1.606-.356-.528-.744-1.063-1.16-1.604-.417-.541-.91-1.148-1.481-1.821-.478-.553-.996-1.07-1.555-1.551-.56-.48-1.149-.78-1.767-.901-.454-.096-.8-.144-1.037-.144-.214 0-.488-.013-.82-.037v4.075c0 1.154.01 2.128.036 2.92.022.771.045 1.432.071 1.984.023.554.153 1.01.391 1.37.191.313.56.632 1.108.956.548.325 1.31.511 2.287.559V27H257v-.361c.595-.095 1.165-.24 1.714-.432.547-.192.976-.481 1.285-.866.12-.144.214-.36.287-.65.071-.287.124-.612.159-.973.037-.36.065-.745.09-1.154.023-.408.036-.804.036-1.19 0-.335.006-.793.018-1.37.012-.576.023-1.208.035-1.893.012-.685.018-1.388.018-2.11V6.878c0-.433-.006-.87-.018-1.316-.012-.445-.035-.866-.072-1.262-.036-.397-.095-.757-.178-1.082-.084-.324-.196-.56-.338-.703-.358-.385-.757-.643-1.198-.775-.44-.132-.982-.247-1.625-.343v-.36h1.465c.809 0 1.725-.006 2.75-.018C262.45 1.007 263.475 1 264.5 1h2.5c1.594 0 3.01.048 4.25.144 1.237.097 2.369.422 3.392.975 1.048.552 1.894 1.303 2.537 2.253.642.95.964 2.146.964 3.588 0 .89-.16 1.689-.482 2.398-.322.709-.75 1.334-1.286 1.875-.536.542-1.161 1.005-1.876 1.389-.714.384-1.464.71-2.249.974v.108c.404.215.797.528 1.179.936.379.41.75.867 1.106 1.371.619.914 1.291 1.9 2.019 2.957.726 1.058 1.373 1.996 1.945 2.813.881 1.25 1.74 2.163 2.573 2.74.833.577 1.808.95 2.928 1.118V27h-7.322zM308.187 27H286v-.361c.603-.096 1.165-.253 1.684-.47.52-.216.949-.517 1.288-.902.12-.145.217-.355.29-.632.073-.277.14-.596.2-.957.059-.362.101-.741.127-1.137.023-.398.035-.789.035-1.175 0-.336.006-.794.019-1.371.012-.578.025-1.21.036-1.897.012-.685.018-1.39.018-2.112V6.85c0-.434-.006-.88-.018-1.336-.011-.458-.036-.89-.073-1.3-.037-.41-.097-.777-.182-1.102-.084-.325-.198-.56-.343-.704-.363-.385-.749-.632-1.16-.74-.413-.11-.943-.211-1.596-.307V1h20.013l2.466 5.958-.363.18c-1.958-2.43-3.794-4.068-5.51-4.91-.412-.193-1.173-.362-2.286-.506-1.11-.144-2.465-.217-4.06-.217-.507 0-1.034.018-1.577.054-.543.036-.936.079-1.178.127-.048.385-.09 1.18-.127 2.383-.037 1.204-.055 2.6-.055 4.189v2.311c0 .626.006 1.138.018 1.535.013.397.02.704.02.92v.398h.723c.363 0 .78-.012 1.251-.036.472-.024.944-.054 1.415-.09.47-.036.864-.09 1.178-.162.726-.169 1.33-.398 1.813-.687.484-.289.877-.638 1.178-1.048.301-.408.543-.884.725-1.426.182-.54.345-1.15.49-1.823h.435v11.375h-.436c-.193-.77-.489-1.564-.888-2.383-.398-.819-.815-1.433-1.25-1.842-.387-.337-.852-.614-1.396-.83-.544-.218-1.18-.35-1.903-.398-.363-.024-.665-.042-.908-.054-.242-.012-.483-.018-.723-.018h-1.669c-.049.337-.073.83-.073 1.481v4.333c0 .385.006.753.018 1.101.013.349.02.645.02.885.023.77.066 1.498.126 2.185.058.686.2 1.197.416 1.534.218.338.738.578 1.56.722.821.145 1.715.217 2.683.217.41 0 .937-.01 1.578-.036.64-.024 1.31-.084 2.011-.18.773-.096 1.485-.283 2.14-.56.652-.277 1.28-.668 1.885-1.173.603-.506 1.19-1.125 1.758-1.86.567-.734 1.154-1.619 1.758-2.654l.399.108L308.187 27zM331.292 23.683c-.472.927-1.127 1.72-1.964 2.378-.836.659-1.837 1.147-3 1.463-1.164.317-2.436.476-3.819.476-1.188 0-2.205-.073-3.053-.22-.85-.145-1.553-.323-2.11-.53-.559-.207-.975-.396-1.255-.567-.278-.17-.454-.256-.527-.256-.072 0-.231.146-.472.439-.242.293-.462.574-.656.841h-.327l-.109-7.28h.364c.22.658.497 1.298.836 1.92.34.622.71 1.208 1.11 1.756.4.55.824 1.032 1.272 1.446.449.414.88.732 1.29.952.413.219.959.438 1.637.658.68.219 1.334.33 1.963.33 1.796 0 3.25-.495 4.366-1.483 1.114-.987 1.672-2.323 1.672-4.006 0-.682-.11-1.28-.327-1.792-.22-.512-.515-.958-.891-1.336-.375-.377-.818-.7-1.328-.97-.508-.268-1.054-.512-1.636-.732-.582-.219-1.09-.402-1.527-.548-.437-.146-.842-.287-1.22-.42-.374-.134-.763-.269-1.162-.403-.4-.134-.88-.312-1.437-.53-.63-.244-1.235-.58-1.818-1.007-.582-.425-1.091-.926-1.527-1.5-.437-.572-.787-1.207-1.054-1.903-.268-.694-.401-1.43-.401-2.212 0-1.318.239-2.452.717-3.402.48-.952 1.12-1.744 1.927-2.379.808-.634 1.74-1.103 2.793-1.408 1.055-.305 2.164-.458 3.327-.458 1.09 0 2.024.092 2.8.275.775.183 1.413.384 1.91.604.496.219.87.42 1.126.603.255.183.395.274.419.274.073 0 .223-.146.454-.438.23-.293.442-.586.636-.879h.401v6.769h-.4c-.291-.806-.666-1.604-1.128-2.397-.46-.792-.995-1.5-1.6-2.122-.607-.622-1.297-1.128-2.072-1.518-.776-.39-1.637-.586-2.583-.586-.752 0-1.46.11-2.126.33-.668.22-1.25.549-1.747.988-.497.44-.884.981-1.162 1.627-.28.647-.419 1.385-.419 2.214 0 1.293.388 2.33 1.161 3.11.774.78 1.778 1.403 3.01 1.865.484.196.937.367 1.36.513.423.146.84.287 1.252.42.412.134.828.275 1.252.421.423.147.864.306 1.324.476 1.644.61 2.92 1.495 3.827 2.653S332 18.805 332 20.537c0 1.171-.235 2.22-.708 3.146M362.68 8.052c-.19-.427-.414-.872-.675-1.335-.26-.463-.527-.897-.799-1.3-.273-.404-.539-.778-.8-1.122-.261-.344-.485-.6-.673-.766-.498-.475-1.038-.79-1.617-.944-.58-.154-1.321-.243-2.22-.266-.452 0-.842-.006-1.173-.019-.332-.011-.664-.017-.994-.017H351.384c0 .594-.008 1.4-.019 2.421-.012 1.021-.017 2.09-.017 3.207v13.925c0 .689.017 1.348.053 1.977.036.63.147 1.074.337 1.335.356.522.858.879 1.51 1.07.65.189 1.238.332 1.758.426V27H343.46v-.356c.616-.071 1.21-.19 1.777-.356.568-.165 1.124-.558 1.67-1.175.118-.119.207-.315.266-.588.059-.272.107-.582.143-.926.034-.344.058-.718.071-1.121.011-.405.017-.796.017-1.176 0-.333.006-.771.018-1.318.01-.546.024-1.151.036-1.816.01-.665.017-1.354.017-2.067V2.283H345.13c-.308 0-.633.006-.978.017-.342.013-.74.019-1.189.019-.9.023-1.64.13-2.22.32-.581.19-1.12.522-1.616.997-.19.167-.41.415-.659.747-.247.333-.508.696-.78 1.087-.272.392-.533.813-.782 1.265-.248.45-.443.89-.586 1.317l-.32-.106 1.067-6.767c.543.118 1.048.214 1.508.284.462.071 1.132.12 2.009.143.9.024 1.704.042 2.415.053.71.012 1.396.018 2.06.018H351.81c.71 0 1.397-.006 2.06-.018l2.06-.036c.71-.011 1.517-.017 2.417-.017.78-.024 1.425-.09 1.936-.197.508-.106 1.034-.242 1.58-.409L363 7.946l-.32.106zM375.577 5.709c-.145.319-.36.822-.637 1.508-.28.687-.627 1.52-1.04 2.5-.413.982-.869 2.092-1.367 3.33l-1.622 4.029h9.078c-.414-1.104-.832-2.208-1.258-3.312-.425-1.102-.838-2.163-1.24-3.18-.4-1.019-.765-1.951-1.093-2.797-.328-.846-.601-1.538-.821-2.078zM380.354 28v-.367c.072 0 .25-.025.528-.074.279-.049.572-.135.875-.257.305-.122.57-.295.803-.515.229-.22.345-.502.345-.846 0-.22-.066-.583-.2-1.085-.133-.503-.321-1.116-.564-1.84-.244-.723-.525-1.527-.84-2.41-.315-.882-.657-1.802-1.02-2.758h-9.699c-.364.932-.717 1.82-1.057 2.667-.34.846-.68 1.698-1.02 2.557-.512 1.323-.767 2.256-.767 2.795 0 .319.097.583.292.791.194.209.444.38.748.515.304.136.631.233.983.294.354.062.687.117 1.003.166V28H363v-.405c.632-.072 1.172-.244 1.621-.514.45-.27.71-.453.784-.552.17-.172.45-.576.84-1.214.387-.638.861-1.582 1.42-2.832.51-1.153 1.081-2.465 1.714-3.936l1.95-4.543c.67-1.557 1.332-3.126 1.988-4.708.656-1.582 1.276-3.06 1.86-4.434l-.366-.809c.438-.196.833-.429 1.186-.698.35-.27.662-.552.93-.846.267-.295.492-.576.673-.846.183-.27.322-.49.42-.663h.292c.753 2.037 1.47 3.967 2.15 5.794.68 1.827 1.33 3.586 1.95 5.278l1.806 4.912c.583 1.581 1.167 3.144 1.75 4.69.268.76.516 1.392.747 1.894l.785 1.71c.047.099.157.271.328.515.17.246.395.497.673.754.28.258.626.485 1.04.681.412.196.9.307 1.459.331V28h-10.646zM419.85 3.033c-.528.332-.938.843-1.231 1.531-.075.167-.142.44-.203.82-.062.38-.116.818-.165 1.318-.049.498-.087 1.027-.111 1.585-.023.557-.036 1.11-.036 1.655-.025 1.022-.055 2.161-.092 3.42l-.128 4.274c-.025.451-.057 1.02-.092 1.71-.037.688-.154 1.418-.35 2.19-.196.772-.509 1.543-.936 2.314-.429.773-1.037 1.473-1.82 2.101-.785.63-1.789 1.13-3.013 1.497-1.227.367-2.733.552-4.522.552-1.765 0-3.253-.178-4.466-.534-1.213-.356-2.212-.838-2.995-1.442-.785-.606-1.391-1.27-1.82-1.995-.428-.724-.747-1.436-.955-2.138-.208-.7-.331-1.34-.367-1.922-.038-.583-.055-1.015-.055-1.3 0-.665.005-1.532.017-2.6.012-1.069.018-2.256.018-3.563V6.488c0-.428-.018-.825-.054-1.194-.037-.368-.092-.7-.165-.997-.074-.296-.184-.528-.331-.695-.345-.402-.766-.694-1.268-.872-.502-.178-1.072-.303-1.71-.374V2h10.954v.356c-.344.047-.712.119-1.103.214-.393.094-.748.243-1.066.445-.318.202-.588.48-.81.836-.22.357-.342.808-.367 1.354-.024.619-.041 1.164-.053 1.639-.014.474-.02.938-.02 1.389V15.32c0 .547.006 1.075.02 1.586.012.51.017 1.05.017 1.62.024 1.259.22 2.404.588 3.437s.883 1.911 1.543 2.635c.663.725 1.471 1.283 2.426 1.675.956.39 2.046.588 3.272.588 1.396 0 2.579-.155 3.546-.463.968-.309 1.777-.737 2.426-1.283.65-.546 1.164-1.175 1.543-1.887.381-.713.663-1.473.848-2.28.182-.807.304-1.632.365-2.476.062-.842.093-1.668.093-2.475V9.942c0-.474-.006-.962-.02-1.46-.01-.498-.029-.973-.053-1.424-.025-.452-.06-.873-.111-1.265-.05-.391-.123-.706-.222-.943-.245-.665-.666-1.206-1.266-1.622-.6-.415-1.49-.705-2.665-.872V2H422v.356c-.907.119-1.624.344-2.15.677M441.143 4.534c-.596-.938-1.465-1.682-2.608-2.235-.57-.265-1.173-.456-1.803-.578-.63-.12-1.292-.18-1.982-.18-.5 0-.906.013-1.215.037-.31.023-.548.048-.714.072-.025.144-.047.27-.072.378-.024.108-.041.247-.053.415-.013.168-.024.403-.036.703l-.054 1.28c-.023.842-.04 1.791-.054 2.85-.011 1.057-.017 2.079-.017 3.064v3.967c.976 0 1.886-.042 2.732-.127.846-.084 1.661-.258 2.448-.522.761-.24 1.415-.565 1.963-.974.548-.409.994-.871 1.34-1.389.344-.516.6-1.075.767-1.676.167-.6.25-1.226.25-1.875 0-1.202-.298-2.272-.892-3.21zM444.678 27c-.213-.217-.368-.379-.463-.488-.096-.107-.204-.233-.322-.377-.12-.145-.269-.355-.447-.632-.18-.276-.46-.69-.839-1.244-.453-.672-.851-1.28-1.198-1.82-.344-.542-.695-1.077-1.053-1.606-.356-.528-.744-1.063-1.16-1.604-.417-.541-.91-1.148-1.481-1.821-.478-.553-.996-1.07-1.555-1.551-.56-.48-1.149-.78-1.768-.901-.453-.096-.798-.144-1.036-.144-.214 0-.488-.013-.82-.037v4.075c0 1.154.01 2.128.036 2.92.022.771.045 1.432.07 1.984.024.554.154 1.01.392 1.37.191.313.56.632 1.108.956.548.325 1.31.511 2.287.559V27H425v-.361c.594-.095 1.165-.24 1.714-.432.547-.192.975-.481 1.285-.866.12-.144.214-.36.287-.65.07-.287.124-.612.159-.973.037-.36.065-.745.09-1.154.023-.408.036-.804.036-1.19 0-.335.005-.793.018-1.37.012-.576.023-1.208.035-1.893.012-.685.018-1.388.018-2.11V6.878c0-.433-.006-.87-.018-1.316-.012-.445-.035-.866-.072-1.262-.036-.397-.095-.757-.178-1.082-.084-.324-.196-.56-.338-.703-.358-.385-.757-.643-1.198-.775-.44-.132-.982-.247-1.625-.343v-.36h1.465c.809 0 1.725-.006 2.75-.018C430.45 1.007 431.475 1 432.5 1h2.5c1.594 0 3.01.048 4.25.144 1.237.097 2.369.422 3.392.975 1.048.552 1.894 1.303 2.537 2.253.642.95.964 2.146.964 3.588 0 .89-.16 1.689-.482 2.398-.322.709-.75 1.334-1.286 1.875-.537.542-1.161 1.005-1.876 1.389-.714.384-1.464.71-2.249.974v.108c.404.215.797.528 1.179.936.379.41.75.867 1.106 1.371.619.914 1.291 1.9 2.019 2.957.726 1.058 1.373 1.996 1.945 2.813.881 1.25 1.738 2.163 2.573 2.74.833.577 1.808.95 2.928 1.118V27h-7.322zM475.976 9.926c-.371-1.517-.936-2.895-1.691-4.133-.757-1.236-1.698-2.24-2.825-3.012-1.129-.77-2.46-1.156-3.996-1.156-1.56 0-2.912.386-4.05 1.156-1.14.771-2.077 1.77-2.809 2.994-.733 1.225-1.272 2.615-1.62 4.17-.347 1.555-.522 3.128-.522 4.72 0 1.666.192 3.27.576 4.813.384 1.542.955 2.902 1.711 4.077.756 1.175 1.703 2.118 2.844 2.829 1.139.71 2.466 1.065 3.977 1.065 1.512 0 2.826-.391 3.942-1.175 1.117-.784 2.046-1.794 2.79-3.031.743-1.237 1.302-2.627 1.673-4.17.373-1.543.558-3.086.558-4.628 0-1.494-.185-3-.558-4.519m3.942 9.918c-.719 1.667-1.697 3.112-2.934 4.336-1.237 1.224-2.676 2.167-4.319 2.828-1.644.661-3.39.992-5.237.992-1.825 0-3.552-.324-5.184-.973-1.633-.65-3.06-1.567-4.284-2.755-1.225-1.188-2.19-2.609-2.898-4.262-.71-1.653-1.062-3.472-1.062-5.455 0-2.106.372-3.998 1.116-5.675.743-1.678 1.745-3.099 3.006-4.262 1.26-1.163 2.735-2.057 4.428-2.682 1.692-.625 3.474-.936 5.345-.936 2.04 0 3.87.367 5.49 1.102 1.62.735 2.995 1.72 4.123 2.957 1.127 1.237 1.991 2.664 2.59 4.28.601 1.615.902 3.306.902 5.07 0 1.958-.361 3.77-1.082 5.435M178.68 55.052c-.19-.427-.415-.872-.675-1.335-.26-.463-.527-.897-.799-1.3-.273-.404-.539-.778-.8-1.122-.26-.344-.485-.6-.674-.766-.497-.475-1.037-.79-1.617-.944-.58-.154-1.32-.243-2.22-.266-.45 0-.841-.006-1.173-.019-.332-.011-.663-.017-.994-.017H167.383c0 .594-.006 1.4-.017 2.421-.012 1.021-.019 2.09-.019 3.207v13.925c0 .689.02 1.348.054 1.977.036.63.147 1.075.338 1.335.354.522.857.879 1.51 1.07.65.189 1.237.332 1.758.426V74H159.46v-.356c.617-.071 1.21-.19 1.777-.356.568-.165 1.125-.558 1.67-1.175.118-.119.207-.315.267-.588.058-.272.106-.582.142-.926.036-.344.058-.718.07-1.121.012-.405.018-.796.018-1.176 0-.333.006-.771.019-1.318l.035-1.816c.01-.665.018-1.354.018-2.067V49.283H161.13c-.309 0-.634.006-.977.017-.344.013-.74.019-1.19.019-.9.023-1.64.13-2.22.32-.581.19-1.12.522-1.616.997-.191.167-.41.416-.658.747-.25.334-.51.696-.782 1.087-.272.392-.532.813-.782 1.265-.248.45-.444.89-.586 1.317l-.32-.106 1.067-6.767c.544.118 1.047.214 1.51.284.461.071 1.13.12 2.007.143.899.024 1.705.042 2.415.053.71.012 1.397.018 2.06.018H167.81c.71 0 1.397-.006 2.06-.018l2.06-.036c.711-.011 1.515-.017 2.415-.017.783-.024 1.428-.09 1.937-.196.51-.107 1.036-.243 1.58-.41L179 54.946l-.32.106z" transform="translate(-92 -58) translate(92 58)"/>
                <path stroke="#5CA466" stroke-width=".5" d="M178.68 55.052c-.19-.427-.415-.872-.675-1.335-.26-.463-.527-.897-.799-1.3-.273-.404-.539-.778-.8-1.122-.26-.344-.485-.6-.674-.766-.497-.475-1.037-.79-1.617-.944-.58-.154-1.32-.243-2.22-.266-.45 0-.841-.006-1.173-.019-.332-.011-.663-.017-.994-.017H167.383c0 .594-.006 1.4-.017 2.421-.012 1.021-.019 2.09-.019 3.207v13.925c0 .689.02 1.348.054 1.977.036.63.147 1.075.338 1.335.354.522.857.879 1.51 1.07.65.189 1.237.332 1.758.426V74H159.46v-.356c.617-.071 1.21-.19 1.777-.356.568-.165 1.125-.558 1.67-1.175.118-.119.207-.315.267-.588.058-.272.106-.582.142-.926.036-.344.058-.718.07-1.121.012-.405.018-.796.018-1.176 0-.333.006-.771.019-1.318l.035-1.816c.01-.665.018-1.354.018-2.067V49.283H161.13c-.309 0-.634.006-.977.017-.344.013-.74.019-1.19.019-.9.023-1.64.13-2.22.32-.581.19-1.12.522-1.616.997-.191.167-.41.416-.658.747-.25.334-.51.696-.782 1.087-.272.392-.532.813-.782 1.265-.248.45-.444.89-.586 1.317l-.32-.106 1.067-6.767c.544.118 1.047.214 1.51.284.461.071 1.13.12 2.007.143.899.024 1.705.042 2.415.053.71.012 1.397.018 2.06.018H167.81c.71 0 1.397-.006 2.06-.018l2.06-.036c.711-.011 1.515-.017 2.415-.017.783-.024 1.428-.09 1.937-.196.51-.107 1.036-.243 1.58-.41L179 54.946l-.32.106z" transform="translate(-92 -58) translate(92 58)"/>
                <path fill="#5CA466" d="M191.578 51.71c-.146.318-.36.82-.638 1.507-.28.687-.627 1.521-1.039 2.501-.414.982-.87 2.092-1.368 3.33-.498 1.238-1.039 2.581-1.623 4.027h9.08c-.415-1.103-.833-2.206-1.258-3.31-.425-1.104-.84-2.164-1.24-3.181-.401-1.018-.766-1.95-1.094-2.797-.328-.846-.601-1.538-.82-2.077zM196.354 74v-.368c.073 0 .249-.024.529-.073.279-.048.57-.135.875-.258.303-.121.57-.294.802-.515.23-.22.346-.501.346-.846 0-.22-.067-.582-.2-1.084-.134-.503-.323-1.116-.565-1.84-.244-.723-.523-1.527-.84-2.41-.315-.882-.655-1.802-1.02-2.758h-9.698c-.365.932-.717 1.82-1.058 2.667-.34.845-.68 1.698-1.02 2.556-.51 1.324-.766 2.257-.766 2.796 0 .318.096.582.291.791.195.208.444.38.748.515s.631.233.985.293c.351.062.685.117 1.003.166V74H179v-.405c.632-.073 1.172-.245 1.621-.515.45-.27.711-.453.784-.551.171-.172.45-.576.84-1.214.387-.637.861-1.582 1.421-2.833.511-1.152 1.081-2.464 1.713-3.936l1.951-4.542c.668-1.557 1.331-3.127 1.987-4.709.656-1.58 1.276-3.058 1.86-4.432l-.365-.81c.438-.195.832-.428 1.185-.698.352-.27.662-.551.93-.846.267-.294.492-.576.675-.846.18-.27.32-.49.419-.663h.292c.753 2.037 1.47 3.968 2.15 5.794.68 1.827 1.33 3.587 1.952 5.279.619 1.692 1.22 3.328 1.805 4.91.582 1.582 1.165 3.145 1.749 4.69.267.76.516 1.392.748 1.895.23.502.49 1.073.783 1.71.048.099.157.27.329.515.169.246.394.496.674.754.278.258.624.484 1.039.681.413.196.899.307 1.458.331V74h-10.646z" transform="translate(-92 -58) translate(92 58)"/>
                <path stroke="#5CA466" stroke-width=".5" d="M191.578 51.71c-.146.318-.36.82-.638 1.507-.28.687-.627 1.521-1.039 2.501-.414.982-.87 2.092-1.368 3.33-.498 1.238-1.039 2.581-1.623 4.027h9.08c-.415-1.103-.833-2.206-1.258-3.31-.425-1.104-.84-2.164-1.24-3.181-.401-1.018-.766-1.95-1.094-2.797-.328-.846-.601-1.538-.82-2.077zM196.354 74v-.368c.073 0 .249-.024.529-.073.279-.048.57-.135.875-.258.303-.121.57-.294.802-.515.23-.22.346-.501.346-.846 0-.22-.067-.582-.2-1.084-.134-.503-.323-1.116-.565-1.84-.244-.723-.523-1.527-.84-2.41-.315-.882-.655-1.802-1.02-2.758h-9.698c-.365.932-.717 1.82-1.058 2.667-.34.845-.68 1.698-1.02 2.556-.51 1.324-.766 2.257-.766 2.796 0 .318.096.582.291.791.195.208.444.38.748.515s.631.233.985.293c.351.062.685.117 1.003.166V74H179v-.405c.632-.073 1.172-.245 1.621-.515.45-.27.711-.453.784-.551.171-.172.45-.576.84-1.214.387-.637.861-1.582 1.421-2.833.511-1.152 1.081-2.464 1.713-3.936l1.951-4.542c.668-1.557 1.331-3.127 1.987-4.709.656-1.58 1.276-3.058 1.86-4.432l-.365-.81c.438-.195.832-.428 1.185-.698.352-.27.662-.551.93-.846.267-.294.492-.576.675-.846.18-.27.32-.49.419-.663h.292c.753 2.037 1.47 3.968 2.15 5.794.68 1.827 1.33 3.587 1.952 5.279.619 1.692 1.22 3.328 1.805 4.91.582 1.582 1.165 3.145 1.749 4.69.267.76.516 1.392.748 1.895.23.502.49 1.073.783 1.71.048.099.157.27.329.515.169.246.394.496.674.754.278.258.624.484 1.039.681.413.196.899.307 1.458.331V74h-10.646z" transform="translate(-92 -58) translate(92 58)"/>
                <path fill="#5CA466" d="M225.95 51.673c-.723-1.08-1.672-1.895-2.847-2.45-.588-.262-1.212-.443-1.873-.539-.661-.095-1.347-.143-2.057-.143-.514 0-.912.017-1.194.054-.281.035-.508.066-.68.09-.023.144-.054.27-.09.377-.037.108-.07.248-.093.415-.024.168-.05.402-.073.702-.024.3-.05.726-.074 1.279-.024.84-.043 1.86-.054 3.06-.013 1.201-.02 2.377-.02 3.53v4.609c1.005 0 1.947-.03 2.83-.09.88-.06 1.701-.221 2.46-.486 1.567-.528 2.767-1.399 3.599-2.611.832-1.212 1.249-2.575 1.249-4.088 0-1.392-.362-2.629-1.084-3.709m4.61 6.302c-.294.72-.68 1.357-1.158 1.908-.477.553-1.034 1.027-1.67 1.423-.637.397-1.286.715-1.947.954-.686.24-1.42.42-2.203.541-.785.12-1.575.21-2.37.27-.795.06-1.573.09-2.332.09h-1.983v3.385c0 .408.006.786.019 1.134.011.348.017.726.017 1.134.025.769.05 1.429.075 1.98.023.554.158 1.01.403 1.369.196.312.576.625 1.138.936.564.312 1.347.493 2.351.54V74h-11.753v-.36c.613-.095 1.2-.24 1.764-.432.563-.192 1.003-.48 1.323-.864.122-.145.22-.36.292-.65.074-.287.129-.61.166-.971.037-.36.067-.744.09-1.153.027-.407.038-.803.038-1.188 0-.335.006-.791.02-1.368l.035-1.89c.012-.685.019-1.387.019-2.107v-9.111c0-.432-.007-.87-.019-1.314-.013-.445-.036-.865-.072-1.26-.037-.397-.098-.756-.184-1.081-.087-.324-.202-.558-.35-.702-.366-.384-.838-.642-1.413-.775-.577-.131-1.194-.246-1.855-.341v-.36h.881c.465 0 1.01-.006 1.634-.019.625-.012 1.304-.018 2.038-.018.737 0 1.463-.005 2.186-.018.722-.011 1.4-.018 2.04-.018h1.651c1.616 0 3.048.079 4.298.234 1.248.156 2.424.534 3.525 1.135 1.078.575 1.97 1.393 2.68 2.448.711 1.057 1.067 2.305 1.067 3.745 0 .889-.148 1.693-.441 2.413" transform="translate(-92 -58) translate(92 58)"/>
                <path stroke="#5CA466" stroke-width=".5" d="M225.95 51.673c-.723-1.08-1.672-1.895-2.847-2.45-.588-.262-1.212-.443-1.873-.539-.661-.095-1.347-.143-2.057-.143-.514 0-.912.017-1.194.054-.281.035-.508.066-.68.09-.023.144-.054.27-.09.377-.037.108-.07.248-.093.415-.024.168-.05.402-.073.702-.024.3-.05.726-.074 1.279-.024.84-.043 1.86-.054 3.06-.013 1.201-.02 2.377-.02 3.53v4.609c1.005 0 1.947-.03 2.83-.09.88-.06 1.701-.221 2.46-.486 1.567-.528 2.767-1.399 3.599-2.611.832-1.212 1.249-2.575 1.249-4.088 0-1.392-.362-2.629-1.084-3.709zm4.609 6.302c-.294.72-.68 1.357-1.158 1.908-.477.553-1.034 1.027-1.67 1.423-.637.397-1.286.715-1.947.954-.686.24-1.42.42-2.203.541-.785.12-1.575.21-2.37.27-.795.06-1.573.09-2.332.09h-1.983v3.385c0 .408.006.786.019 1.134.011.348.017.726.017 1.134.025.769.05 1.429.075 1.98.023.554.158 1.01.403 1.369.196.312.576.625 1.138.936.564.312 1.347.493 2.351.54V74h-11.753v-.36c.613-.095 1.2-.24 1.764-.432.563-.192 1.003-.48 1.323-.864.122-.145.22-.36.292-.65.074-.287.129-.61.166-.971.037-.36.067-.744.09-1.153.027-.407.038-.803.038-1.188 0-.335.006-.791.02-1.368l.035-1.89c.012-.685.019-1.387.019-2.107v-9.111c0-.432-.007-.87-.019-1.314-.013-.445-.036-.865-.072-1.26-.037-.397-.098-.756-.184-1.081-.087-.324-.202-.558-.35-.702-.366-.384-.838-.642-1.413-.775-.577-.131-1.194-.246-1.855-.341v-.36h.881c.465 0 1.01-.006 1.634-.019.625-.012 1.304-.018 2.038-.018.737 0 1.463-.005 2.186-.018.722-.011 1.4-.018 2.04-.018h1.651c1.616 0 3.048.079 4.298.234 1.248.156 2.424.534 3.525 1.135 1.078.575 1.97 1.393 2.68 2.448.711 1.057 1.067 2.305 1.067 3.745 0 .889-.148 1.693-.441 2.413z" transform="translate(-92 -58) translate(92 58)"/>
                <path fill="#5CA466" d="M251.95 51.673c-.722-1.08-1.672-1.895-2.847-2.45-.588-.262-1.211-.443-1.872-.539-.661-.095-1.347-.143-2.058-.143-.513 0-.913.017-1.193.054-.282.035-.51.066-.68.09-.024.144-.055.27-.091.377-.037.108-.069.248-.092.415-.025.168-.05.402-.074.702-.025.3-.05.726-.074 1.279-.023.84-.042 1.86-.055 3.06-.012 1.201-.018 2.377-.018 3.53v4.609c1.004 0 1.947-.03 2.83-.09.88-.06 1.7-.221 2.459-.486 1.566-.528 2.767-1.399 3.601-2.611.83-1.212 1.248-2.575 1.248-4.088 0-1.392-.362-2.629-1.084-3.709m4.609 6.302c-.293.72-.678 1.357-1.157 1.908-.476.553-1.034 1.027-1.67 1.423-.638.397-1.286.715-1.946.954-.686.24-1.422.42-2.205.541-.785.12-1.574.21-2.37.27-.795.06-1.572.09-2.332.09h-1.983v3.385c0 .408.006.786.018 1.134.013.348.019.726.019 1.134.024.769.048 1.429.073 1.98.024.554.16 1.01.404 1.369.196.312.576.625 1.139.936.564.312 1.347.493 2.351.54V74h-11.753v-.36c.61-.095 1.198-.24 1.761-.432.564-.192 1.005-.48 1.324-.864.122-.145.219-.36.293-.65.074-.287.13-.61.165-.971.038-.36.068-.744.093-1.153.024-.407.035-.803.035-1.188 0-.335.007-.791.02-1.368.012-.576.025-1.206.037-1.89.011-.685.017-1.387.017-2.107v-9.111c0-.432-.006-.87-.017-1.314-.012-.445-.037-.865-.074-1.26-.037-.397-.098-.756-.184-1.081-.087-.324-.202-.558-.348-.702-.368-.384-.84-.642-1.415-.775-.575-.131-1.193-.246-1.854-.341v-.36h.88c.465 0 1.011-.006 1.636-.019.624-.012 1.302-.018 2.039-.018.733 0 1.463-.005 2.184-.018.722-.011 1.401-.018 2.039-.018h1.653c1.615 0 3.049.079 4.297.234 1.25.156 2.423.534 3.527 1.135 1.075.575 1.969 1.393 2.68 2.448.711 1.057 1.065 2.305 1.065 3.745 0 .889-.146 1.693-.441 2.413" transform="translate(-92 -58) translate(92 58)"/>
                <path stroke="#5CA466" stroke-width=".5" d="M251.95 51.673c-.722-1.08-1.672-1.895-2.847-2.45-.588-.262-1.211-.443-1.872-.539-.661-.095-1.347-.143-2.058-.143-.513 0-.913.017-1.193.054-.282.035-.51.066-.68.09-.024.144-.055.27-.091.377-.037.108-.069.248-.092.415-.025.168-.05.402-.074.702-.025.3-.05.726-.074 1.279-.023.84-.042 1.86-.055 3.06-.012 1.201-.018 2.377-.018 3.53v4.609c1.004 0 1.947-.03 2.83-.09.88-.06 1.7-.221 2.459-.486 1.566-.528 2.767-1.399 3.601-2.611.83-1.212 1.248-2.575 1.248-4.088 0-1.392-.362-2.629-1.084-3.709zm4.609 6.302c-.293.72-.678 1.357-1.157 1.908-.476.553-1.034 1.027-1.67 1.423-.638.397-1.286.715-1.946.954-.686.24-1.422.42-2.205.541-.785.12-1.574.21-2.37.27-.795.06-1.572.09-2.332.09h-1.983v3.385c0 .408.006.786.018 1.134.013.348.019.726.019 1.134.024.769.048 1.429.073 1.98.024.554.16 1.01.404 1.369.196.312.576.625 1.139.936.564.312 1.347.493 2.351.54V74h-11.753v-.36c.61-.095 1.198-.24 1.761-.432.564-.192 1.005-.48 1.324-.864.122-.145.219-.36.293-.65.074-.287.13-.61.165-.971.038-.36.068-.744.093-1.153.024-.407.035-.803.035-1.188 0-.335.007-.791.02-1.368.012-.576.025-1.206.037-1.89.011-.685.017-1.387.017-2.107v-9.111c0-.432-.006-.87-.017-1.314-.012-.445-.037-.865-.074-1.26-.037-.397-.098-.756-.184-1.081-.087-.324-.202-.558-.348-.702-.368-.384-.84-.642-1.415-.775-.575-.131-1.193-.246-1.854-.341v-.36h.88c.465 0 1.011-.006 1.636-.019.624-.012 1.302-.018 2.039-.018.733 0 1.463-.005 2.184-.018.722-.011 1.401-.018 2.039-.018h1.653c1.615 0 3.049.079 4.297.234 1.25.156 2.423.534 3.527 1.135 1.075.575 1.969 1.393 2.68 2.448.711 1.057 1.065 2.305 1.065 3.745 0 .889-.146 1.693-.441 2.413z" transform="translate(-92 -58) translate(92 58)"/>
                <path fill="#5CA466" d="M282.187 74H260v-.361c.604-.096 1.166-.253 1.684-.47.522-.216.95-.517 1.288-.902.122-.145.217-.355.29-.631.073-.278.14-.597.2-.958.06-.362.101-.741.127-1.137.024-.398.036-.789.036-1.175 0-.336.006-.793.019-1.371.012-.578.024-1.21.035-1.897.012-.685.018-1.39.018-2.112V53.85c0-.434-.006-.88-.018-1.336-.011-.458-.035-.89-.073-1.3-.037-.41-.096-.777-.181-1.102-.085-.324-.199-.56-.343-.704-.364-.385-.75-.632-1.162-.74-.411-.11-.942-.211-1.595-.307V48h20.013l2.466 5.959-.363.18c-1.957-2.432-3.794-4.069-5.51-4.91-.412-.194-1.173-.363-2.286-.507-1.11-.144-2.465-.217-4.06-.217-.507 0-1.033.018-1.576.054-.544.036-.937.079-1.179.127-.048.385-.09 1.18-.127 2.383-.037 1.204-.054 2.6-.054 4.189v2.311c0 .626.005 1.138.017 1.535.014.397.02.704.02.92v.398h.724c.363 0 .78-.012 1.251-.036.472-.024.943-.054 1.414-.09.472-.036.864-.09 1.178-.162.726-.169 1.33-.398 1.813-.687.484-.289.877-.638 1.179-1.048.301-.408.543-.884.724-1.426.182-.54.345-1.15.49-1.823h.436v11.375h-.436c-.194-.77-.49-1.564-.888-2.383-.399-.819-.816-1.433-1.25-1.842-.388-.337-.852-.614-1.397-.83-.544-.218-1.18-.35-1.903-.397-.362-.025-.665-.043-.907-.055-.242-.012-.484-.018-.724-.018h-1.669c-.049.337-.072.83-.072 1.481v4.333c0 .385.005.753.017 1.101.014.349.02.645.02.885.023.77.067 1.498.126 2.185.06.686.2 1.197.416 1.535.219.337.739.577 1.56.722.821.144 1.715.216 2.683.216.411 0 .937-.01 1.578-.036.64-.024 1.31-.084 2.011-.18.773-.096 1.485-.283 2.14-.56.652-.277 1.28-.668 1.885-1.173.604-.506 1.191-1.125 1.759-1.86.566-.734 1.153-1.619 1.758-2.654l.398.108L282.187 74z" transform="translate(-92 -58) translate(92 58)"/>
                <path stroke="#5CA466" stroke-width=".5" d="M282.187 74H260v-.361c.604-.096 1.166-.253 1.684-.47.522-.216.95-.517 1.288-.902.122-.145.217-.355.29-.631.073-.278.14-.597.2-.958.06-.362.101-.741.127-1.137.024-.398.036-.789.036-1.175 0-.336.006-.793.019-1.371.012-.578.024-1.21.035-1.897.012-.685.018-1.39.018-2.112V53.85c0-.434-.006-.88-.018-1.336-.011-.458-.035-.89-.073-1.3-.037-.41-.096-.777-.181-1.102-.085-.324-.199-.56-.343-.704-.364-.385-.75-.632-1.162-.74-.411-.11-.942-.211-1.595-.307V48h20.013l2.466 5.959-.363.18c-1.957-2.432-3.794-4.069-5.51-4.91-.412-.194-1.173-.363-2.286-.507-1.11-.144-2.465-.217-4.06-.217-.507 0-1.033.018-1.576.054-.544.036-.937.079-1.179.127-.048.385-.09 1.18-.127 2.383-.037 1.204-.054 2.6-.054 4.189v2.311c0 .626.005 1.138.017 1.535.014.397.02.704.02.92v.398h.724c.363 0 .78-.012 1.251-.036.472-.024.943-.054 1.414-.09.472-.036.864-.09 1.178-.162.726-.169 1.33-.398 1.813-.687.484-.289.877-.638 1.179-1.048.301-.408.543-.884.724-1.426.182-.54.345-1.15.49-1.823h.436v11.375h-.436c-.194-.77-.49-1.564-.888-2.383-.399-.819-.816-1.433-1.25-1.842-.388-.337-.852-.614-1.397-.83-.544-.218-1.18-.35-1.903-.397-.362-.025-.665-.043-.907-.055-.242-.012-.484-.018-.724-.018h-1.669c-.049.337-.072.83-.072 1.481v4.333c0 .385.005.753.017 1.101.014.349.02.645.02.885.023.77.067 1.498.126 2.185.06.686.2 1.197.416 1.535.219.337.739.577 1.56.722.821.144 1.715.216 2.683.216.411 0 .937-.01 1.578-.036.64-.024 1.31-.084 2.011-.18.773-.096 1.485-.283 2.14-.56.652-.277 1.28-.668 1.885-1.173.604-.506 1.191-1.125 1.759-1.86.566-.734 1.153-1.619 1.758-2.654l.398.108L282.187 74z" transform="translate(-92 -58) translate(92 58)"/>
                <path fill="#5CA466" d="M312.68 55.052c-.191-.427-.415-.872-.676-1.335-.26-.463-.526-.897-.799-1.3-.273-.404-.539-.778-.799-1.122-.26-.344-.486-.6-.674-.766-.498-.475-1.038-.79-1.617-.944-.58-.154-1.32-.243-2.22-.266-.45 0-.841-.006-1.173-.019-.332-.011-.663-.017-.994-.017H301.383c0 .594-.007 1.4-.018 2.421-.012 1.021-.018 2.09-.018 3.207v13.925c0 .689.018 1.348.054 1.977.036.63.147 1.075.337 1.335.355.522.857.879 1.51 1.07.65.189 1.238.332 1.758.426V74H293.46v-.356c.617-.071 1.21-.19 1.777-.356.568-.165 1.124-.558 1.669-1.175.119-.119.207-.315.267-.588.058-.272.107-.582.143-.926.034-.344.057-.718.07-1.121.012-.405.018-.796.018-1.176 0-.333.005-.771.017-1.318.011-.546.024-1.151.036-1.816.012-.665.018-1.354.018-2.067V49.283h-2.346c-.307 0-.632.006-.977.017-.342.013-.739.019-1.189.019-.901.023-1.64.13-2.22.32-.581.19-1.12.522-1.616.997-.19.167-.41.416-.659.747-.247.334-.508.696-.78 1.087-.272.392-.533.813-.782 1.265-.248.45-.443.89-.586 1.317l-.32-.106 1.067-6.767c.543.118 1.048.214 1.508.284.462.071 1.132.12 2.009.143.899.024 1.704.042 2.416.053.709.012 1.395.018 2.058.018H301.81c.71 0 1.396-.006 2.06-.018l2.06-.036c.71-.011 1.516-.017 2.416-.017.78-.024 1.425-.09 1.936-.196.508-.107 1.035-.243 1.58-.41L313 54.946l-.32.106z" transform="translate(-92 -58) translate(92 58)"/>
                <path stroke="#5CA466" stroke-width=".5" d="M312.68 55.052c-.191-.427-.415-.872-.676-1.335-.26-.463-.526-.897-.799-1.3-.273-.404-.539-.778-.799-1.122-.26-.344-.486-.6-.674-.766-.498-.475-1.038-.79-1.617-.944-.58-.154-1.32-.243-2.22-.266-.45 0-.841-.006-1.173-.019-.332-.011-.663-.017-.994-.017H301.383c0 .594-.007 1.4-.018 2.421-.012 1.021-.018 2.09-.018 3.207v13.925c0 .689.018 1.348.054 1.977.036.63.147 1.075.337 1.335.355.522.857.879 1.51 1.07.65.189 1.238.332 1.758.426V74H293.46v-.356c.617-.071 1.21-.19 1.777-.356.568-.165 1.124-.558 1.669-1.175.119-.119.207-.315.267-.588.058-.272.107-.582.143-.926.034-.344.057-.718.07-1.121.012-.405.018-.796.018-1.176 0-.333.005-.771.017-1.318.011-.546.024-1.151.036-1.816.012-.665.018-1.354.018-2.067V49.283h-2.346c-.307 0-.632.006-.977.017-.342.013-.739.019-1.189.019-.901.023-1.64.13-2.22.32-.581.19-1.12.522-1.616.997-.19.167-.41.416-.659.747-.247.334-.508.696-.78 1.087-.272.392-.533.813-.782 1.265-.248.45-.443.89-.586 1.317l-.32-.106 1.067-6.767c.543.118 1.048.214 1.508.284.462.071 1.132.12 2.009.143.899.024 1.704.042 2.416.053.709.012 1.395.018 2.058.018H301.81c.71 0 1.396-.006 2.06-.018l2.06-.036c.71-.011 1.516-.017 2.416-.017.78-.024 1.425-.09 1.936-.196.508-.107 1.035-.243 1.58-.41L313 54.946l-.32.106z" transform="translate(-92 -58) translate(92 58)"/>
                <path fill="#5CA466" d="M316 74v-.361c.605-.096 1.168-.253 1.689-.47.519-.216.962-.529 1.324-.938.122-.145.212-.349.274-.614.059-.265.107-.578.144-.94.037-.36.061-.74.073-1.136.011-.398.017-.789.017-1.175 0-.336.006-.793.02-1.371l.036-1.897c.01-.685.018-1.39.018-2.112V52.55c0-.433-.018-.837-.054-1.21-.037-.373-.093-.71-.164-1.011-.073-.3-.183-.535-.327-.704-.34-.41-.756-.705-1.252-.885-.497-.181-1.06-.308-1.689-.38V48h10.854v.36c-.508.072-1.051.206-1.632.398-.582.193-1.03.577-1.344 1.156-.217.409-.333.927-.345 1.552-.013.627-.03 1.216-.054 1.77 0 .601-.006 1.197-.018 1.788-.013.59-.02 1.185-.02 1.788V68.909c0 .697.013 1.37.038 2.021.024.651.133 1.109.326 1.373.292.41.75.722 1.38.94.629.215 1.198.348 1.706.396V74h-11z" transform="translate(-92 -58) translate(92 58)"/>
                <path stroke="#5CA466" stroke-width=".5" d="M316 74v-.361c.605-.096 1.168-.253 1.689-.47.519-.216.962-.529 1.324-.938.122-.145.212-.349.274-.614.059-.265.107-.578.144-.94.037-.36.061-.74.073-1.136.011-.398.017-.789.017-1.175 0-.336.006-.793.02-1.371l.036-1.897c.01-.685.018-1.39.018-2.112V52.55c0-.433-.018-.837-.054-1.21-.037-.373-.093-.71-.164-1.011-.073-.3-.183-.535-.327-.704-.34-.41-.756-.705-1.252-.885-.497-.181-1.06-.308-1.689-.38V48h10.854v.36c-.508.072-1.051.206-1.632.398-.582.193-1.03.577-1.344 1.156-.217.409-.333.927-.345 1.552-.013.627-.03 1.216-.054 1.77 0 .601-.006 1.197-.018 1.788-.013.59-.02 1.185-.02 1.788V68.909c0 .697.013 1.37.038 2.021.024.651.133 1.109.326 1.373.292.41.75.722 1.38.94.629.215 1.198.348 1.706.396V74h-11z" transform="translate(-92 -58) translate(92 58)"/>
                <g transform="translate(-92 -58) translate(92 58) translate(0 37)">
                    <mask id="g2d37tw70f" fill="#fff">
                        <use xlink:href="#1184pp9vze"/>
                    </mask>
                    <path fill="#5CA466" d="M481.184 2.963L0 1.871 0.003 0.102 481.188 1.194z" mask="url(#g2d37tw70f)"/>
                </g>
            </g>
        </g>
    </g>
</svg>
